PathFileType	4	(X/Y/Z)	Patient4_TMGait_0pt5_02_left_13.trc.trc
DataRate	CameraRate	NumFrames	NumMarkers	Units	OrigDataRate	OrigDataStartFrame	OrigNumFrames
76.923076923077	76.923076923077	4	33	mm	76.923076923077	18	       141
Frame#	Time	Sacral			L.Shoulder			Chest			R.Shoulder			Neck			R.ASIS			L.ASIS			R.Thigh.Superior			R.Thigh.Lateral			R.Thigh.Inferior			R.Patella			L.Thigh.Superior			L.Thigh.Lateral			L.Thigh.Inferior			L.Patella			L.Shank.Superior			L.Shank.Lateral			L.Shank.Inferior			R.Shank.Superior			R.Shank.Lateral			R.Shank.Inferior			R.Heel			R.Midfoot.Superior			R.Midfoot.Lateral			R.Toe			L.Heel			L.Midfoot.Lateral			L.Midfoot.Superior			L.Toe			L.Elbow			L.Wrist			R.Elbow			R.Wrist			
		X1	Y1	Z1	X2	Y2	Z2	X3	Y3	Z3	X4	Y4	Z4	X5	Y5	Z5	X6	Y6	Z6	X7	Y7	Z7	X8	Y8	Z8	X9	Y9	Z9	X10	Y10	Z10	X11	Y11	Z11	X12	Y12	Z12	X13	Y13	Z13	X14	Y14	Z14	X15	Y15	Z15	X16	Y16	Z16	X17	Y17	Z17	X18	Y18	Z18	X19	Y19	Z19	X20	Y20	Z20	X21	Y21	Z21	X22	Y22	Z22	X23	Y23	Z23	X24	Y24	Z24	X25	Y25	Z25	X26	Y26	Z26	X27	Y27	Z27	X28	Y28	Z28	X29	Y29	Z29	X30	Y30	Z30	X31	Y31	Z31	X32	Y32	Z32	X33	Y33	Z33	

18	16.551000000000	551.062131607294	1012.293912386810	533.963929145541	718.511942896923	1441.035512553915	350.597858414004	838.614886597858	1358.085383455540	491.898998684087	785.011522103745	1427.989022014527	678.168850502793	740.152869815606	1493.903152829679	503.391421081294	784.156241772278	936.881686134847	625.525818701929	743.569175052286	959.897725426843	352.977021308562	793.253078582025	729.797550069734	596.199803196174	701.077764031628	631.566753520443	662.077638084469	762.120102265951	570.179808253737	578.047813436061	749.096946047193	484.709406015550	584.100695883447	814.350918170131	772.140108851563	382.405270938196	766.282494784764	649.315402722325	302.013810994844	863.885229538146	584.569536107141	367.549626434556	891.713126119670	521.702687901162	361.957692504315	877.622706456935	452.060703582663	349.286414524793	817.342987744810	320.806888552179	294.407368973261	906.110446734797	224.030416744034	351.101210741482	715.795125654850	398.345574506522	591.539986874332	637.954702578076	299.853933153015	653.310754838502	671.229075084494	203.059443299183	588.842338908815	526.348409799169	43.072160630966	555.958462938901	697.090457769864	96.311786611886	594.892479329953	608.290624906488	36.156852198146	632.369744567326	816.594748693331	42.245379043006	625.405859996550	828.330175562221	37.401524738431	385.145180910895	903.639200369108	48.911447770060	306.770997983450	968.661411079960	131.190375758674	329.665717582668	1104.664116305028	112.236851814460	306.138642604382	581.446854957927	1110.401046206062	253.684834895526	551.686304445356	851.876172281163	259.045431741930	941.943698225540	1128.190302554907	777.972217731321	1191.307250007272	1141.876468933047	716.116348715091	
19	16.564000000000	552.139369524217	1011.144191468566	533.072086577787	718.117746709324	1440.102760363315	348.762773624885	838.749363417711	1357.384897010690	489.690529762702	785.698529945411	1427.494125368309	675.952758454235	740.178526021272	1492.998627843167	501.427004926785	785.438466509713	936.157552696985	623.854207510639	743.996808389661	958.662850707751	351.292790664243	793.331939328227	728.702621744862	594.714311014657	700.704509646517	630.838999516684	660.999320125140	760.875209834815	569.054960593997	576.885412464097	747.093213208371	483.439563198472	582.921762140801	814.253038473602	770.367404913885	380.950513906672	764.943451554200	647.119175949884	301.810889752654	863.030281026152	582.607304973990	366.726645597246	890.859513286597	520.466099375377	361.653420871849	877.693572813242	451.125374474115	349.290737776965	819.049106176525	318.549963877495	295.978554601533	910.206443747581	223.618872881474	352.237483097875	712.889445340481	397.237222110316	590.589821682558	634.326696066096	299.600047987411	652.824513628448	666.126370039827	202.396129860703	588.338790830765	519.815622571675	43.131540790138	556.008867386062	690.561418091853	96.243233738904	594.785798915314	601.740074206406	36.148914570862	632.393421877275	810.043376298636	42.079556551443	625.409400122608	835.333884927564	36.974196332920	388.177470640568	910.155757009400	47.984824023012	309.351300918524	974.928065528354	130.555735014631	331.166407771648	1110.833193890283	111.803731451030	307.282252046857	577.833755140216	1110.769229262187	253.410416079591	545.754741967791	852.507591481177	259.644916924741	947.328569885266	1130.949712163093	775.075954204645	1195.346977915731	1153.444753452646	712.304414055633	
20	16.577000000000	553.439770290479	1009.832554699658	531.976452130353	717.640962593518	1439.071429978874	346.752740832334	838.856875509949	1356.709972490897	487.334492618837	786.271769563549	1426.970281064023	673.606142691024	740.078460559844	1492.037027537343	499.288840340973	786.948958823684	935.375805921289	622.041410071318	744.741418336479	957.381403994863	349.484852754759	793.529025232691	727.514122416582	593.122003532852	700.344798014042	630.088915298486	659.855656979545	759.625163037592	567.845826679930	575.712256588622	745.026051691851	482.125082602093	581.715136682241	814.849779984440	768.702693090820	379.219379680205	763.997750461842	644.798133226095	301.712462910000	862.792755245622	580.677412853740	365.715273095393	890.480962286651	518.921870000298	361.207119307478	877.770884345918	449.686704415934	349.334895618766	819.740673596456	316.313500344202	297.685568371312	912.450269260203	222.596690201852	353.509938331958	709.920745481458	396.115321932129	589.628332214476	630.643877219684	299.350021540278	652.330885160742	660.993265802101	201.734828857291	587.851969698135	513.287613970092	43.175941714499	556.063131440105	684.035476987922	96.180149794997	594.695397454827	595.194492094707	36.123636828655	632.421320097076	803.493042717446	41.909466512042	625.419274032385	838.956413756209	36.817721833585	391.240818587605	913.302700955349	46.874758466582	311.926533188874	978.576932165602	128.963078860768	332.868944841684	1114.115206471176	109.178385646031	308.447385058167	574.895830807541	1110.744283500279	252.876187791218	540.968331161139	852.701744844172	259.786756658143	951.915427975831	1133.260419491232	772.161848987174	1198.443773928604	1163.575425976431	708.653466977497	
21	16.590000000000	554.953667133800	1008.374952085718	530.666036903383	717.097308561830	1437.935307706156	344.566136517164	838.953431262950	1356.057844884323	484.833071219704	786.742807638302	1426.413315064147	671.137739687366	739.869406877527	1491.020739657558	496.974357998134	788.678796741150	934.529050944142	620.099033018419	745.814766207943	956.055791757223	347.559036462946	793.825228495907	726.226392916916	591.455871372939	699.952015504161	629.322263082922	658.651951318351	758.333097357952	566.554792183055	574.535465004862	742.855570109978	480.768761592308	580.481088877701	816.112094208397	767.133611602594	377.251478958600	763.489570301682	642.410938374557	301.647679366160	863.139535290220	578.800296942156	364.547179141832	890.541684269710	517.104153422274	360.656522684513	877.900615639461	447.796632264388	349.402918790989	819.621004761472	314.074227005322	299.378589537740	913.089360136817	220.961071503164	354.850030413243	706.859484570566	394.989739931944	588.654920462318	626.878185184861	299.108926905135	651.831630372603	655.812884159598	201.082255037021	587.380371791533	506.761082092913	43.197541492271	556.125362984777	677.508951064751	96.121851467722	594.619641821588	588.654396551892	36.075641972502	632.454696557191	796.947391441853	41.732594000211	625.437178101900	839.538532439795	36.783302850061	394.106507885244	913.510249491442	45.539282281068	314.354945297043	979.938577581833	126.448183554801	334.752723103849	1114.913916868631	104.537395376433	309.769512771397	572.664163531737	1110.286240090935	252.066828417537	537.353427450574	852.416425926610	259.459745879100	955.680490142236	1135.039862632622	769.265225749897	1200.669296902422	1172.207574185637	705.158474928697	
